<svg xmlns="http://www.w3.org/2000/svg" xmlns:xlink="http://www.w3.org/1999/xlink" version="1.1" x="0px" y="0px" viewBox="0 0 96 120" enable-background="new 0 0 96 96" xml:space="preserve"><path d="M82.833,22.587L64.247,4h-51.08v88h69.667V22.587z M65.125,9.121l12.587,12.587H65.125V9.121z M79.833,89H16.167V7h45.959  v17.708h17.708V89z"/><rect x="69.793" y="29.417" width="3" height="3"/><rect x="57.34" y="29.417" width="6.227" height="3"/><rect x="23.208" y="29.417" width="3" height="3"/><rect x="69.793" y="39.99" width="3" height="3"/><rect x="57.34" y="39.99" width="6.227" height="3"/><rect x="23.208" y="39.99" width="3" height="3"/><rect x="69.793" y="50.563" width="3" height="3"/><rect x="57.34" y="50.563" width="6.227" height="3"/><rect x="32.435" y="50.563" width="6.227" height="3"/><rect x="23.208" y="50.563" width="3" height="3"/><rect x="23.208" y="17.667" width="13.903" height="3"/><path d="M59.78,72.751c0.753-1.796,0.048-4.805-0.376-6.26c-1.453-4.984-7.328-17.074-9.357-21.187l0.729-0.343l3.255-1.529  l-5.182-11.016h2.265v-3h-3.676l-2.623-5.575l-3.52,1.653c-0.423-0.284-1.231-0.688-2.438-0.688c-0.931,0-1.922,0.244-2.946,0.726  c-2.612,1.23-3.269,2.95-3.428,3.885h-0.048v0.447c-0.002,0.075-0.001,0.13,0,0.167v2.386h0.992l3.563,7.573h-4.554v3H38.4  l3.002,6.382l0.728-0.343c1.874,4.186,7.441,16.421,10.354,20.718c0.445,0.657,2.565,3.647,4.583,4.283l0.553,1.176l1.269-0.598  v1.459h13.903v-3H59.93L59.78,72.751z M36.741,32.417l-1.255-2.669c0.033-0.089,0.091-0.203,0.178-0.331  c0.223-0.329,0.658-0.762,1.525-1.17c0.622-0.292,1.183-0.44,1.669-0.44c0.261,0,0.452,0.044,0.571,0.082l5.693,12.102l1.411,3  l0.251,0.534l-3.945,1.855L36.741,32.417z M54.968,68.063c-1.881-2.773-5.058-9.325-7.466-14.5c-0.502-1.078-0.967-2.088-1.383-3  c-0.514-1.125-0.953-2.099-1.273-2.812l2.486-1.169c0.465,0.943,1.15,2.344,1.937,3.98c0.449,0.935,0.93,1.942,1.429,3  c2.326,4.938,4.962,10.801,5.827,13.768c0.302,1.037,0.517,2.32,0.569,3.23C56.425,69.94,55.573,68.958,54.968,68.063z"/><path d="M33.659,69.483h-2.493v-4.941h4.958v-3h-4.958v-1.9h-3v1.9h-1.804c-0.839,0-1.579,0.141-2.204,0.42  c-0.614,0.277-1.121,0.668-1.511,1.169c-0.341,0.444-0.586,0.958-0.728,1.519c-0.139,0.539-0.21,1.149-0.21,1.814v1.098  c0,0.664,0.07,1.273,0.208,1.807c0.144,0.571,0.391,1.086,0.734,1.53c0.382,0.492,0.888,0.884,1.507,1.165  c0.617,0.278,1.359,0.42,2.204,0.42h1.804v5.121h-4.55v3h4.55v1.902h3v-1.902h2.493c2.269,0,3.793-1.756,3.793-4.369v-2.382  C37.452,71.239,35.927,69.483,33.659,69.483z M28.166,69.483h-1.804c-0.519,0-0.814-0.084-0.967-0.153  c-0.168-0.076-0.293-0.166-0.372-0.268c-0.091-0.118-0.154-0.255-0.2-0.436c-0.076-0.296-0.115-0.654-0.115-1.065v-1.098  c0-0.412,0.039-0.771,0.116-1.072c0.044-0.175,0.108-0.313,0.195-0.426c0.081-0.104,0.207-0.194,0.368-0.268  c0.16-0.071,0.458-0.156,0.975-0.156h1.804V69.483z M34.452,76.235c0,1.369-0.576,1.369-0.793,1.369h-2.493v-5.121h2.493  c0.217,0,0.793,0,0.793,1.37V76.235z"/><text x="0" y="111" fill="#000000" font-size="5px" font-weight="bold" font-family="'Helvetica Neue', Helvetica, Arial-Unicode, Arial, Sans-serif">Created by faisalovers</text><text x="0" y="116" fill="#000000" font-size="5px" font-weight="bold" font-family="'Helvetica Neue', Helvetica, Arial-Unicode, Arial, Sans-serif">from the Noun Project</text></svg>