<svg xmlns="http://www.w3.org/2000/svg" xmlns:xlink="http://www.w3.org/1999/xlink" version="1.1" x="0px" y="0px" viewBox="0 0 35 43.75" enable-background="new 0 0 35 35" xml:space="preserve"><path d="M28.717,3.5H8.445C7.246,3.5,6.27,4.477,6.27,5.675v2.021c-1.296,0.15-2.162,0.773-2.162,1.575  c0,0.804,0.897,1.435,2.162,1.581v2.323c-1.296,0.151-2.162,0.774-2.162,1.576c0,0.803,0.897,1.433,2.162,1.579v2.326  c-1.296,0.15-2.162,0.771-2.162,1.575c0,0.803,0.897,1.433,2.162,1.579v2.325c-1.296,0.151-2.162,0.773-2.162,1.575  c0,0.805,0.897,1.435,2.162,1.581v2.034c0,1.199,0.976,2.174,2.175,2.174h20.272c1.199,0,2.175-0.975,2.175-2.174V5.675  C30.892,4.477,29.917,3.5,28.717,3.5z M5.108,9.271c0-0.118,0.375-0.437,1.162-0.558v1.126C5.515,9.727,5.108,9.416,5.108,9.271z   M5.108,14.751c0-0.118,0.375-0.437,1.162-0.559v1.124C5.539,15.204,5.108,14.902,5.108,14.751z M5.108,20.231  c0-0.118,0.375-0.438,1.162-0.559v1.124C5.539,20.685,5.108,20.383,5.108,20.231z M5.108,25.711c0-0.118,0.375-0.437,1.162-0.559  v1.127C5.515,26.168,5.108,25.856,5.108,25.711z M7.27,29.326v-2.025c1.337-0.115,2.303-0.757,2.303-1.59c0-0.275-0.224-0.5-0.5-0.5  s-0.5,0.225-0.5,0.5c0,0.154-0.455,0.498-1.303,0.59v-4.48c1.337-0.116,2.303-0.758,2.303-1.589c0-0.276-0.224-0.5-0.5-0.5  s-0.5,0.224-0.5,0.5c0,0.161-0.484,0.495-1.303,0.587V16.34c1.337-0.116,2.303-0.758,2.303-1.589c0-0.276-0.224-0.5-0.5-0.5  s-0.5,0.224-0.5,0.5c0,0.161-0.484,0.495-1.303,0.587v-4.479c1.337-0.115,2.303-0.756,2.303-1.589c0-0.276-0.224-0.5-0.5-0.5  s-0.5,0.224-0.5,0.5c0,0.153-0.455,0.498-1.303,0.589V5.675C7.27,5.027,7.797,4.5,8.445,4.5h2.431v26H8.445  C7.797,30.5,7.27,29.974,7.27,29.326z M29.892,29.326c0,0.647-0.527,1.174-1.175,1.174H11.875v-26h16.842  c0.648,0,1.175,0.527,1.175,1.175V29.326z"/><rect x="15.494" y="22.547" width="10.78" height="1"/><rect x="15.494" y="26.324" width="6.907" height="1"/><path d="M20.883,14c1.458,0,2.646-1.188,2.646-2.646s-1.187-2.646-2.646-2.646c-1.458,0-2.645,1.188-2.645,2.646  S19.425,14,20.883,14z M20.883,9.709c0.907,0,1.646,0.738,1.646,1.646S21.791,13,20.883,13c-0.907,0-1.645-0.738-1.645-1.646  S19.977,9.709,20.883,9.709z"/><path d="M16.802,18.604h8.163c0.276,0,0.5-0.224,0.5-0.5c0-2.287-1.544-3.652-4.13-3.652c-0.213,0-0.372,0.011-0.452,0.018  c-0.08-0.007-0.239-0.018-0.452-0.018c-2.585,0-4.129,1.365-4.129,3.652C16.302,18.381,16.526,18.604,16.802,18.604z M20.431,15.452  c0.232,0,0.383,0.016,0.396,0.017c0.036,0.004,0.076,0.004,0.112,0c0.013-0.001,0.164-0.017,0.396-0.017  c1.079,0,2.832,0.293,3.096,2.152h-7.096C17.6,15.745,19.353,15.452,20.431,15.452z"/><text x="0" y="50" fill="#000000" font-size="5px" font-weight="bold" font-family="'Helvetica Neue', Helvetica, Arial-Unicode, Arial, Sans-serif">Created by Bieutuong Ba</text><text x="0" y="55" fill="#000000" font-size="5px" font-weight="bold" font-family="'Helvetica Neue', Helvetica, Arial-Unicode, Arial, Sans-serif">from the Noun Project</text></svg>