<svg xmlns="http://www.w3.org/2000/svg" xmlns:xlink="http://www.w3.org/1999/xlink" version="1.1" x="0px" y="0px" viewBox="0 0 128 160" style="enable-background:new 0 0 128 128;" xml:space="preserve"><g><path d="M84.6,45.7v45.5h8.6V40.9l-4.7,7.3L84.6,45.7z M90.1,51v37.1h-2.6v-37l1.7,1.1L90.1,51z"/><path d="M69,54.4v36.8h8.5V46.3L69,54.4z M74.5,88.2H72V55.7l2.5-2.4V88.2z"/><path d="M57.1,66.7l-4-1.8v26.3h8.5V62.5L57.1,66.7z M58.7,88.2h-2.5V69.6l1.5,0.7l1-0.9V88.2z"/><path d="M45.9,55.9l-8.2,8.3v27h8.2V55.9z M42.9,88.2h-2.2V65.4l2.2-2.3V88.2z"/><path d="M37.4,61.1l7-7.1l12.5,8.8L83,39.5l5.4,6.1l3.8-16l-16.4,1.7l5.3,6L56.7,59l-12.6-8.9L35.3,59c-0.6,0.6-0.6,1.5,0,2.1   C35.9,61.7,36.9,61.7,37.4,61.1z M88.3,33l-1.5,6.3l-5-5.6L88.3,33z"/><path d="M109.6,124.7V20.3l-0.4-0.4c0,0,0,0,0,0L94.4,5.1c0-0.1,0-0.2,0-0.3c0-0.8-0.7-1.5-1.5-1.5H18.4l0,121.3H109.6z M96.2,11.2   l8.3,8.3h-8.3V11.2z M92.9,6.3c0.1,0,0.2,0,0.3,0v16.2h13.4v99.2H21.4l0-115.3H92.9z"/><path d="M83.5,102.2H44.5c-0.8,0-1.5,0.7-1.5,1.5s0.7,1.5,1.5,1.5h38.9c0.8,0,1.5-0.7,1.5-1.5S84.3,102.2,83.5,102.2z"/><path d="M45.7,17.6h36.6c0.8,0,1.5-0.7,1.5-1.5s-0.7-1.5-1.5-1.5H45.7c-0.8,0-1.5,0.7-1.5,1.5S44.9,17.6,45.7,17.6z"/><path d="M76.2,111.2H51.8c-0.8,0-1.5,0.7-1.5,1.5s0.7,1.5,1.5,1.5h24.3c0.8,0,1.5-0.7,1.5-1.5S77,111.2,76.2,111.2z"/></g><text x="0" y="143" fill="#000000" font-size="5px" font-weight="bold" font-family="'Helvetica Neue', Helvetica, Arial-Unicode, Arial, Sans-serif">Created by Shocho</text><text x="0" y="148" fill="#000000" font-size="5px" font-weight="bold" font-family="'Helvetica Neue', Helvetica, Arial-Unicode, Arial, Sans-serif">from the Noun Project</text></svg>