<svg xmlns="http://www.w3.org/2000/svg" xmlns:xlink="http://www.w3.org/1999/xlink" version="1.1" x="0px" y="0px" viewBox="0 0 100 125" enable-background="new 0 0 100 100" xml:space="preserve"><path d="M89.293,5.774H50.455c-2.418,0-4.385,1.899-4.385,4.234v4.008h-3.347c-2.418,0-4.385,1.896-4.385,4.228v23.682  c-0.42,0.337-0.751,0.757-1.001,1.114l-6.92,9.62l-1.3,0.553c-0.965-1.79-2.859-3.01-5.033-3.01h-12.05  c-3.15,0-5.713,2.56-5.713,5.706v32.605c0,3.15,2.563,5.713,5.713,5.713h12.05c2.249,0,4.193-1.31,5.125-3.204  c4.349,3.009,7.862,3.192,13.057,3.192h23.813h15.481c2.418,0,4.386-1.899,4.386-4.234v-4.003h3.347  c2.418,0,4.386-1.899,4.386-4.233V10.008C93.679,7.674,91.711,5.774,89.293,5.774z M25.797,55.946v31.412v1.155  c0,0.944-0.769,1.713-1.713,1.713h-12.05c-0.929,0-1.713-0.784-1.713-1.713V55.908c0-0.925,0.784-1.706,1.713-1.706h12.05  c0.929,0,1.713,0.781,1.713,1.706V55.946z M42.339,44.294c0-0.046,0.001-0.091,0-0.139V18.244c0-0.078,0.15-0.228,0.385-0.228  h38.837c0.235,0,0.386,0.149,0.386,0.228v43.698c-0.453-0.12-0.932-0.188-1.438-0.188h-0.486c0.295-0.803,0.457-1.695,0.457-2.646  c0-1.747-0.576-3.384-1.62-4.61c-0.371-0.435-0.885-0.901-1.55-1.297V30.326c0-0.557-0.232-1.088-0.64-1.466  c-0.342-0.318-0.783-0.503-1.243-0.53c-1.296-0.326-4.811-2.545-4.734-3.879c0.032-0.549-0.165-1.088-0.542-1.488  c-0.378-0.4-0.904-0.627-1.455-0.627H55.586c-0.55,0-1.076,0.227-1.454,0.627c-0.378,0.4-0.574,0.938-0.542,1.488  c0.077,1.334-3.44,3.553-4.736,3.879c-0.46,0.027-0.901,0.213-1.243,0.53c-0.408,0.378-0.64,0.91-0.64,1.466v21.955h-4.631V44.294z   M62.245,42.948c-3.916,0-7.084,3.898-7.847,9.333H50.97V31.796c1.566-0.666,3.488-1.884,4.759-3.23  c0.687-0.727,1.185-1.472,1.492-2.231h9.838c0.307,0.758,0.805,1.504,1.491,2.23c1.271,1.346,3.192,2.564,4.759,3.23v20.485h-3.215  C69.334,46.846,66.166,42.948,62.245,42.948z M66.047,52.281h-7.603c0.606-3.224,2.308-5.333,3.8-5.333  C63.741,46.948,65.443,49.057,66.047,52.281z M67.705,89.977c-0.102,0.034-0.225,0.052-0.335,0.079  c-0.378,0.093-0.795,0.157-1.291,0.157H42.266c-5.441,0-8.173-0.159-12.469-3.77V57.269l2.699-1.147  c0.337-0.143,0.628-0.376,0.841-0.673l5.001-6.953v5.785c0,1.104,0.896,2,2,2h8.631h7.254h12.043h0.02h5.485  c0.21,0,0.406,0.018,0.593,0.048c0.042,0.006,0.078,0.017,0.118,0.025c0.554,0.111,1.004,0.354,1.332,0.739  c0.422,0.495,0.665,1.23,0.665,2.015c0,0.916-0.409,2.646-1.954,2.646h-0.753H58.545c-1.104,0-2,0.896-2,2s0.896,2,2,2h15.227h6.736  c0.141,0,0.276,0.026,0.408,0.065c0.031,0.009,0.062,0.02,0.092,0.031c0.113,0.041,0.223,0.093,0.328,0.159  c0.014,0.009,0.029,0.015,0.042,0.024c0.111,0.074,0.215,0.165,0.315,0.263c0.026,0.026,0.052,0.052,0.077,0.078  c0.093,0.1,0.18,0.208,0.261,0.324c0.013,0.018,0.025,0.036,0.037,0.053c0.375,0.572,0.602,1.311,0.602,2.011  c0,0.667-0.188,1.206-0.532,1.629c-0.042,0.052-0.081,0.108-0.127,0.156c-0.111,0.114-0.238,0.217-0.377,0.31  c-0.065,0.043-0.135,0.078-0.204,0.115c-0.097,0.053-0.198,0.102-0.306,0.146c-0.078,0.032-0.155,0.065-0.235,0.092  c-0.166,0.054-0.344,0.099-0.533,0.134c-0.075,0.014-0.15,0.026-0.226,0.037c-0.212,0.031-0.434,0.053-0.672,0.062  c-0.041,0.001-0.08,0.002-0.119,0.003c-0.287,0.006-0.587,0-0.908-0.026c-0.054-0.004-0.107-0.006-0.161-0.006H60.285h-2.901  c-1.104,0-2,0.896-2,2s0.896,2,2,2h2.901h15.104c1.028,0.006,1.41,1.508,1.409,2.455c0,0.026-0.001,0.062-0.002,0.097  c0,0.011,0,0.018,0,0.029c-0.001,0.028-0.003,0.063-0.005,0.094c-0.001,0.027-0.002,0.049-0.004,0.079  c-0.002,0.028-0.006,0.062-0.009,0.092c-0.004,0.038-0.006,0.074-0.012,0.116c-0.004,0.033-0.01,0.069-0.015,0.103  c-0.007,0.045-0.012,0.088-0.02,0.136c-0.005,0.027-0.012,0.058-0.018,0.086c-0.011,0.057-0.021,0.114-0.035,0.173  c-0.233,0.987-0.908,2.28-2.846,2.28l-16.922-0.006c-0.003,0-0.005,0.001-0.008,0.001l-2.725-0.001c-1.104,0-2,0.896-2,2  s0.896,2,2,2h2.733h10.335c1.838,0.015,2.324,1.509,2.321,2.39C69.562,88.507,69.045,89.527,67.705,89.977z M81.946,89.979  c0,0.083-0.146,0.234-0.386,0.234h-8.56c0.017-0.039,0.029-0.08,0.045-0.119c0.053-0.126,0.1-0.253,0.145-0.381  c0.028-0.081,0.057-0.161,0.081-0.242c0.041-0.135,0.076-0.271,0.108-0.408c0.018-0.076,0.038-0.151,0.053-0.228  c0.031-0.153,0.053-0.307,0.073-0.461c0.007-0.06,0.019-0.12,0.025-0.18c0.022-0.216,0.035-0.432,0.036-0.646  c0.002-0.661-0.103-1.33-0.302-1.975c-0.044-0.144-0.088-0.288-0.142-0.429l0.348,0c0.122,0.005,0.242,0.008,0.36,0.008  c0.077,0,0.148-0.009,0.224-0.011c0.171-0.004,0.339-0.011,0.504-0.026c0.084-0.007,0.166-0.018,0.248-0.028  c0.202-0.024,0.4-0.054,0.592-0.093c0.038-0.008,0.074-0.017,0.111-0.025c2.981-0.659,4.731-3.083,5.173-5.743  c0.006-0.038,0.009-0.076,0.015-0.114c0.028-0.185,0.055-0.371,0.07-0.557c0.015-0.181,0.02-0.363,0.023-0.544  c0-0.045,0.006-0.091,0.006-0.136c0,0,0,0,0-0.001s0-0.001,0-0.001c0.001-0.893-0.135-1.732-0.386-2.492  c0.55-0.063,1.061-0.17,1.535-0.312V89.979z M89.679,81.744c0,0.08-0.15,0.233-0.386,0.233h-3.347V71.823  c0.483-0.952,0.722-2.007,0.722-3.061c0-1.097-0.254-2.221-0.722-3.24V18.244c0-2.331-1.967-4.228-4.386-4.228H50.07v-4.008  c0-0.08,0.15-0.234,0.385-0.234h38.838c0.235,0,0.386,0.154,0.386,0.234V81.744z"/><text x="0" y="115" fill="#000000" font-size="5px" font-weight="bold" font-family="'Helvetica Neue', Helvetica, Arial-Unicode, Arial, Sans-serif">Created by Rakhmat Setiawan</text><text x="0" y="120" fill="#000000" font-size="5px" font-weight="bold" font-family="'Helvetica Neue', Helvetica, Arial-Unicode, Arial, Sans-serif">from the Noun Project</text></svg>